# File produced by Open Asset Import Library (http://www.assimp.sf.net)
# (assimp v3.1.193236683)

mtllib new table.mtl

# 96 vertex positions
v  26.0465 0 -15.8007
v  26.0465 0 15.6641
v  -25.7444 0 15.6641
v  -25.7444 0 -15.8007
v  25.0465 2.29505 14.6641
v  25.0465 2.29505 -14.8007
v  -24.7444 2.29505 -14.8007
v  -24.7444 2.29505 14.6641
v  -25.7444 0 19.9183
v  26.0465 0 19.9183
v  26.0465 1.29505 19.9183
v  -25.7444 1.29505 19.9183
v  30.1521 0 15.6641
v  30.1521 0 -15.8007
v  30.1521 1.29505 -15.8007
v  30.1521 1.29505 15.6641
v  26.0465 0 -20.0549
v  -25.7444 0 -20.0549
v  -25.7444 1.29505 -20.0549
v  26.0465 1.29505 -20.0549
v  -29.8501 0 -15.8007
v  -29.8501 0 15.6641
v  -29.8501 1.29505 15.6641
v  -29.8501 1.29505 -15.8007
v  29.1521 2.29505 15.6641
v  29.1521 2.29505 -15.8007
v  27.0465 2.29505 -15.8007
v  27.0465 2.29505 15.6641
v  -28.8501 2.29505 -15.8007
v  -28.8501 2.29505 15.6641
v  -26.7444 2.29505 15.6641
v  -26.7444 2.29505 -15.8007
v  30.1521 0 19.9183
v  30.1521 1.29505 19.9183
v  -29.8501 1.29505 19.9183
v  -29.8501 0 19.9183
v  -29.8501 0 -20.0549
v  -29.8501 1.29505 -20.0549
v  30.1521 1.29505 -20.0549
v  30.1521 0 -20.0549
v  26.0465 2.29505 -16.8007
v  26.0465 2.29505 -19.0549
v  -25.7444 2.29505 -19.0549
v  -25.7444 2.29505 -16.8007
v  -25.7444 2.29505 16.6641
v  -25.7444 2.29505 18.9183
v  26.0465 2.29505 18.9183
v  26.0465 2.29505 16.6641
v  29.5011 -36.0449 16.3387
v  29.5011 -36.0449 19.2437
v  26.6975 -36.0449 19.2437
v  26.6975 -36.0449 16.3387
v  26.6975 -36.0449 -16.4753
v  26.6975 -36.0449 -19.3803
v  29.5011 -36.0449 -19.3803
v  29.5011 -36.0449 -16.4753
v  -29.1991 -36.0449 -16.4753
v  -29.1991 -36.0449 -19.3803
v  -26.3954 -36.0449 -19.3803
v  -26.3954 -36.0449 -16.4753
v  -26.3955 -36.0449 16.3387
v  -26.3955 -36.0449 19.2437
v  -29.1991 -36.0449 19.2437
v  -29.1991 -36.0449 16.3387
v  29.1521 2.29505 -19.0549
v  29.1521 2.29505 18.9183
v  -28.8501 2.29505 18.9183
v  -28.8501 2.29505 -19.0549
v  30.1521 -34.6028 19.9183
v  26.0465 -34.6028 19.9183
v  26.0465 -34.6028 15.6641
v  30.1521 -34.6028 15.6641
v  30.1521 -34.6028 -20.0549
v  30.1521 -34.6028 -15.8007
v  26.0465 -34.6028 -15.8007
v  26.0465 -34.6028 -20.0549
v  -29.8501 -34.6028 -20.0549
v  -25.7444 -34.6028 -20.0549
v  -25.7444 -34.6028 -15.8007
v  -29.8501 -34.6028 -15.8007
v  -29.8501 -34.6028 19.9183
v  -29.8501 -34.6028 15.6641
v  -25.7444 -34.6028 15.6641
v  -25.7444 -34.6028 19.9183
v  25.6323 1.598 15.6641
v  26.0465 1.598 15.2499
v  26.0465 1.598 15.6641
v  26.0465 1.598 -15.3865
v  25.6323 1.598 -15.8007
v  26.0465 1.598 -15.8007
v  -25.3302 1.598 -15.8007
v  -25.7444 1.598 -15.3865
v  -25.7444 1.598 -15.8007
v  -25.7444 1.598 15.2499
v  -25.3302 1.598 15.6641
v  -25.7444 1.598 15.6641

# 204 UV coordinates
vt 0.474811 0.036646 0
vt 0.474811 0.300294 0
vt 0.0408485 0.300294 0
vt 0.0408485 0.036646 0
vt 0.44837 0.39065 0
vt 0.44837 0.63754 0
vt 0.031166 0.63754 0
vt 0.031166 0.39065 0
vt 0.978419 0.474811 0
vt 0.978419 0.0408485 0
vt 0.98927 0.0408485 0
vt 0.98927 0.474811 0
vt 0.368821 0.6957 0
vt 0.368821 0.959348 0
vt 0.357969 0.959348 0
vt 0.357969 0.6957 0
vt 0.0202305 0.373099 0
vt 0.0202305 0.807061 0
vt 0.00937912 0.807061 0
vt 0.00937915 0.373099 0
vt 0.324812 0.959348 0
vt 0.324812 0.6957 0
vt 0.335663 0.6957 0
vt 0.335663 0.959348 0
vt 0.509213 0.036646 0
vt 0.509213 0.300294 0
vt 0.00644673 0.300294 0
vt 0.00644673 0.036646 0
vt 0.703661 0.512992 0
vt 0.967309 0.512992 0
vt 0.967309 0.530636 0
vt 0.703661 0.530636 0
vt 0.967309 0.999 0
vt 0.703661 0.999 0
vt 0.703661 0.981356 0
vt 0.967309 0.981356 0
vt 0.978419 0.00644673 0
vt 0.98927 0.00644673 0
vt 0.98927 0.509213 0
vt 0.978419 0.509213 0
vt 0.0202305 0.841463 0
vt 0.00937912 0.841463 0
vt 0.00937915 0.338697 0
vt 0.0202305 0.338697 0
vt 0.474811 0.33594 0
vt 0.0408485 0.33594 0
vt 0.0408485 0.001 0
vt 0.474811 0.001 0
vt 0.975688 0.539015 0
vt 0.994576 0.539015 0
vt 0.994576 0.972977 0
vt 0.975688 0.972977 0
vt 0.695282 0.972977 0
vt 0.676394 0.972977 0
vt 0.676394 0.539015 0
vt 0.695282 0.539015 0
vt 0.368821 0.994994 0
vt 0.357969 0.994994 0
vt 0.357969 0.660054 0
vt 0.368821 0.660054 0
vt 0.324812 0.660054 0
vt 0.335663 0.660054 0
vt 0.335663 0.994994 0
vt 0.324812 0.994994 0
vt 0.584096 0.750145 0
vt 0.584096 0.725803 0
vt 0.607588 0.725803 0
vt 0.607588 0.750145 0
vt 0.583246 0.700377 0
vt 0.607588 0.700377 0
vt 0.607588 0.723869 0
vt 0.583246 0.723869 0
vt 0.632165 0.700377 0
vt 0.632165 0.724718 0
vt 0.608673 0.724718 0
vt 0.608673 0.700377 0
vt 0.608673 0.750145 0
vt 0.608673 0.725803 0
vt 0.632165 0.725803 0
vt 0.632165 0.750145 0
vt 0.994576 0.512992 0
vt 0.676394 0.512992 0
vt 0.676394 0.999 0
vt 0.994576 0.999 0
vt 0.688478 0.00644673 0
vt 0.688478 0.0408485 0
vt 0.815984 0.164582 0
vt 0.526044 0.164582 0
vt 0.526044 0.128936 0
vt 0.815984 0.128936 0
vt 0.815984 0.127851 0
vt 0.526044 0.127851 0
vt 0.526044 0.0934492 0
vt 0.815984 0.0934492 0
vt 0.658762 0.6957 0
vt 0.658762 0.660054 0
vt 0.658762 0.994994 0
vt 0.658762 0.959348 0
vt 0.815984 0.0923643 0
vt 0.526044 0.0923643 0
vt 0.526044 0.0579625 0
vt 0.815984 0.0579625 0
vt 0.780698 0.66035 0
vt 0.780698 0.950291 0
vt 0.745052 0.950291 0
vt 0.745052 0.66035 0
vt 0.310171 0.373099 0
vt 0.310171 0.338697 0
vt 0.310171 0.841463 0
vt 0.310171 0.807061 0
vt 0.852915 0.66035 0
vt 0.852915 0.950291 0
vt 0.817269 0.950291 0
vt 0.817269 0.66035 0
vt 0.815984 0.200069 0
vt 0.526044 0.200069 0
vt 0.526044 0.165667 0
vt 0.815984 0.165667 0
vt 0.0348708 0.959348 0
vt 0.0348708 0.994994 0
vt 0.0348708 0.660054 0
vt 0.0348708 0.6957 0
vt 0.816184 0.66035 0
vt 0.816184 0.950291 0
vt 0.781782 0.950291 0
vt 0.781782 0.66035 0
vt 0.743967 0.66035 0
vt 0.743967 0.950291 0
vt 0.708321 0.950291 0
vt 0.708321 0.66035 0
vt 0.688478 0.474811 0
vt 0.688478 0.509213 0
vt 0.676394 0.0119016 0
vt 0.676394 0.0353936 0
vt 0.828068 0.15893 0
vt 0.828068 0.134588 0
vt 0.828068 0.122396 0
vt 0.828068 0.098904 0
vt 0.670846 0.690048 0
vt 0.670846 0.665706 0
vt 0.670846 0.989342 0
vt 0.670846 0.965 0
vt 0.828068 0.0869094 0
vt 0.828068 0.0634174 0
vt 0.775045 0.648266 0
vt 0.750704 0.648266 0
vt 0.322255 0.367644 0
vt 0.322255 0.344152 0
vt 0.322255 0.836008 0
vt 0.322255 0.812516 0
vt 0.847263 0.648266 0
vt 0.822921 0.648266 0
vt 0.828068 0.194614 0
vt 0.828068 0.171122 0
vt 0.0227869 0.965 0
vt 0.0227869 0.989342 0
vt 0.0227869 0.665706 0
vt 0.0227869 0.690048 0
vt 0.810729 0.648266 0
vt 0.787237 0.648266 0
vt 0.738315 0.648266 0
vt 0.713973 0.648266 0
vt 0.676394 0.480266 0
vt 0.676394 0.503758 0
vt 0.997649 0.474811 0
vt 0.997649 0.500834 0
vt 0.34959 0.6957 0
vt 0.34959 0.668433 0
vt 0.00100003 0.373099 0
vt 0.00100003 0.347076 0
vt 0.344042 0.959348 0
vt 0.344042 0.986615 0
vt 0.997649 0.0408485 0
vt 0.997649 0.0148259 0
vt 0.001 0.807061 0
vt 0.001 0.833084 0
vt 0.34959 0.959348 0
vt 0.34959 0.986615 0
vt 0.344042 0.6957 0
vt 0.344042 0.668433 0
vt 0.943484 0.313669 0
vt 0.946955 0.310198 0
vt 0.946955 0.313669 0
vt 0.946955 0.0534913 0
vt 0.943484 0.0500205 0
vt 0.946955 0.0500205 0
vt 0.516463 0.0500205 0
vt 0.512992 0.0534913 0
vt 0.512992 0.0500205 0
vt 0.512992 0.310198 0
vt 0.516463 0.313669 0
vt 0.512992 0.313669 0
vt 0.456749 0.645919 0
vt 0.45675 0.382271 0
vt 0.0227869 0.382271 0
vt 0.0227869 0.645919 0
vt 0.703661 0.542486 0
vt 0.707132 0.539015 0
vt 0.963838 0.539015 0
vt 0.967309 0.542486 0
vt 0.967309 0.969507 0
vt 0.963838 0.972977 0
vt 0.707132 0.972977 0
vt 0.703661 0.969507 0

# 91 vertex normals
vn 0 -1 -6.12323e-17
vn 0 1 6.12323e-17
vn 0 -6.12323e-17 1
vn 1 0 0
vn 0 6.12323e-17 -1
vn -1 0 0
vn 0 -0.186331 0.982487
vn 0 -0.186331 0.982487
vn -0.983781 -0.179376 -1.09836e-17
vn -0.983781 -0.179376 -1.09836e-17
vn 0 -0.18633 -0.982487
vn 0 -0.186331 -0.982487
vn 0.983781 -0.179375 -1.09836e-17
vn 0.983781 -0.179375 -1.09836e-17
vn 0.983781 -0.179375 -1.09836e-17
vn 0.983781 -0.179375 -1.09836e-17
vn 0 -0.186331 0.982487
vn 0 -0.186331 0.982487
vn -0.983781 -0.179376 -1.09836e-17
vn 0 -0.18633 -0.982487
vn 0 -0.186331 -0.982487
vn 0 -0.186331 -0.982487
vn 0 -0.18633 -0.982487
vn 0.983781 -0.179376 -1.09836e-17
vn 0.983781 -0.179376 -1.09836e-17
vn -0.983781 -0.179375 -1.09836e-17
vn -0.983781 -0.179375 -1.09836e-17
vn -0.983781 -0.179375 -1.09836e-17
vn 0 -0.18633 -0.982487
vn 0 -0.18633 -0.982487
vn 0.983781 -0.179376 -1.09836e-17
vn 0.983781 -0.179376 -1.09836e-17
vn 0 -0.186331 0.982487
vn 0 -0.186331 0.982487
vn 0 -0.423686 0.905809
vn 0 -0.423686 0.905809
vn -0.911438 -0.411438 -2.51933e-17
vn -0.911438 -0.411438 -2.51933e-17
vn 0 -0.423685 -0.905809
vn 0.911438 -0.411437 -2.51932e-17
vn 0.911438 -0.411437 -2.51932e-17
vn 0.911438 -0.411437 -2.51932e-17
vn 0 -0.423686 0.905809
vn 0 -0.423686 0.905809
vn -0.911438 -0.411438 -2.51933e-17
vn 0 -0.423685 -0.905809
vn 0 -0.423685 -0.905809
vn 0 -0.423685 -0.905809
vn 0.911438 -0.411438 -2.51933e-17
vn 0.911438 -0.411438 -2.51933e-17
vn -0.911438 -0.411437 -2.51932e-17
vn -0.911438 -0.411437 -2.51932e-17
vn 0 -0.423685 -0.90581
vn 0 -0.423685 -0.90581
vn 0.911438 -0.411438 -2.51933e-17
vn 0 -0.423686 0.905809
vn 0 -0.423686 0.905809
vn 0 0.707107 0.707107
vn 0.707107 0.707107 4.32978e-17
vn 0 0.707107 -0.707107
vn -0.707107 0.707107 4.32978e-17
vn 1.32726e-07 -1 -1.5171e-09
vn -1.32726e-07 -1 1.5171e-09
vn 0.571837 0.820367 -3.61137e-08
vn 0.571837 0.820367 -3.61137e-08
vn -1.059e-08 0.820367 0.571837
vn -1.059e-08 0.820367 0.571837
vn -0.571837 0.820367 3.61137e-08
vn -0.571837 0.820367 3.61137e-08
vn 1.059e-08 0.820367 -0.571837
vn 1.059e-08 0.820367 -0.571837
vn -0.40435 0.820367 -0.40435
vn -0.40435 0.820367 -0.40435
vn -0.40435 0.820367 -0.40435
vn -0.40435 0.820367 -0.40435
vn -0.571837 0.820367 3.54324e-08
vn -0.571837 0.820367 3.54324e-08
vn -0.571837 0.820367 3.54324e-08
vn -0.571837 0.820367 3.54323e-08
vn -0.40435 0.820367 0.40435
vn 0 0.820367 0.571837
vn 0.40435 0.820367 0.40435
vn 0.40435 0.820367 0.40435
vn 0.40435 0.820367 0.40435
vn 0.40435 0.820367 0.40435
vn 0.571837 0.820367 -3.54324e-08
vn 0.571837 0.820367 -3.54324e-08
vn 0.571837 0.820367 -3.54324e-08
vn 0.571837 0.820367 -3.54323e-08
vn 0.40435 0.820367 -0.40435
vn 0 0.820367 -0.571837

# Mesh 'Box001_Box001' with 188 faces
g Box001_Box001
usemtl DefaultMaterial
f  1/1/1 2/2/1 3/3/1
f  3/3/1 4/4/1 1/1/1
f  5/5/2 6/6/2 7/7/2
f  7/7/2 8/8/2 5/5/2
f  9/9/3 10/10/3 11/11/3
f  11/11/3 12/12/3 9/9/3
f  13/13/4 14/14/4 15/15/4
f  15/15/4 16/16/4 13/13/4
f  17/17/5 18/18/5 19/19/5
f  19/19/5 20/20/5 17/17/5
f  21/21/6 22/22/6 23/23/6
f  23/23/6 24/24/6 21/21/6
f  14/25/1 13/26/1 2/2/1
f  2/2/1 1/1/1 14/25/1
f  22/27/1 21/28/1 4/4/1
f  4/4/1 3/3/1 22/27/1
f  25/29/2 26/30/2 27/31/2
f  27/31/2 28/32/2 25/29/2
f  29/33/2 30/34/2 31/35/2
f  31/35/2 32/36/2 29/33/2
f  10/10/3 33/37/3 34/38/3
f  34/38/3 11/11/3 10/10/3
f  12/12/3 35/39/3 36/40/3
f  36/40/3 9/9/3 12/12/3
f  18/18/5 37/41/5 38/42/5
f  38/42/5 19/19/5 18/18/5
f  20/20/5 39/43/5 40/44/5
f  40/44/5 17/17/5 20/20/5
f  2/2/1 10/45/1 9/46/1
f  9/46/1 3/3/1 2/2/1
f  4/4/1 18/47/1 17/48/1
f  17/48/1 1/1/1 4/4/1
f  41/49/2 42/50/2 43/51/2
f  43/51/2 44/52/2 41/49/2
f  45/53/2 46/54/2 47/55/2
f  47/55/2 48/56/2 45/53/2
f  14/14/4 40/57/4 39/58/4
f  39/58/4 15/15/4 14/14/4
f  16/16/4 34/59/4 33/60/4
f  33/60/4 13/13/4 16/16/4
f  22/22/6 36/61/6 35/62/6
f  35/62/6 23/23/6 22/22/6
f  24/24/6 38/63/6 37/64/6
f  37/64/6 21/21/6 24/24/6
f  49/65/1 50/66/1 51/67/1
f  51/67/1 52/68/1 49/65/1
f  53/69/1 54/70/1 55/71/1
f  55/71/1 56/72/1 53/69/1
f  57/73/1 58/74/1 59/75/1
f  59/75/1 60/76/1 57/73/1
f  61/77/1 62/78/1 63/79/1
f  63/79/1 64/80/1 61/77/1
f  41/49/2 27/31/2 26/30/2
f  41/49/2 26/30/2 65/81/2
f  65/81/2 42/50/2 41/49/2
f  66/82/2 25/29/2 28/32/2
f  66/82/2 28/32/2 48/56/2
f  48/56/2 47/55/2 66/82/2
f  45/53/2 31/35/2 30/34/2
f  45/53/2 30/34/2 67/83/2
f  67/83/2 46/54/2 45/53/2
f  68/84/2 29/33/2 32/36/2
f  68/84/2 32/36/2 44/52/2
f  44/52/2 43/51/2 68/84/2
f  69/85/7 33/37/3 10/10/3
f  10/10/3 70/86/8 69/85/7
f  70/87/9 10/88/6 2/89/6
f  2/89/6 71/90/10 70/87/9
f  71/91/11 2/92/5 13/93/5
f  13/93/5 72/94/12 71/91/11
f  72/95/13 13/13/4 33/60/4
f  33/60/4 69/96/14 72/95/13
f  73/97/15 40/57/4 14/14/4
f  14/14/4 74/98/16 73/97/15
f  74/99/17 14/100/3 1/101/3
f  1/101/3 75/102/18 74/99/17
f  75/103/19 1/104/6 17/105/6
f  17/105/6 76/106/10 75/103/19
f  76/107/20 17/17/5 40/44/5
f  40/44/5 73/108/21 76/107/20
f  77/109/22 37/41/5 18/18/5
f  18/18/5 78/110/23 77/109/22
f  78/111/24 18/112/4 4/113/4
f  4/113/4 79/114/25 78/111/24
f  79/115/8 4/116/3 21/117/3
f  21/117/3 80/118/7 79/115/8
f  80/119/26 21/21/6 37/64/6
f  37/64/6 77/120/27 80/119/26
f  81/121/26 36/61/6 22/22/6
f  22/22/6 82/122/28 81/121/26
f  82/123/29 22/124/5 3/125/5
f  3/125/5 83/126/30 82/123/29
f  83/127/31 3/128/4 9/129/4
f  9/129/4 84/130/32 83/127/31
f  84/131/33 9/9/3 36/40/3
f  36/40/3 81/132/34 84/131/33
f  50/133/35 69/85/7 70/86/8
f  70/86/8 51/134/36 50/133/35
f  51/135/37 70/87/9 71/90/10
f  71/90/10 52/136/38 51/135/37
f  52/137/39 71/91/11 72/94/12
f  72/94/12 49/138/39 52/137/39
f  49/139/40 72/95/13 69/96/14
f  69/96/14 50/140/40 49/139/40
f  55/141/41 73/97/15 74/98/16
f  74/98/16 56/142/42 55/141/41
f  56/143/43 74/99/17 75/102/18
f  75/102/18 53/144/44 56/143/43
f  53/145/37 75/103/19 76/106/10
f  76/106/10 54/146/45 53/145/37
f  54/147/46 76/107/20 73/108/21
f  73/108/21 55/148/47 54/147/46
f  58/149/48 77/109/22 78/110/23
f  78/110/23 59/150/48 58/149/48
f  59/151/49 78/111/24 79/114/25
f  79/114/25 60/152/50 59/151/49
f  60/153/36 79/115/8 80/118/7
f  80/118/7 57/154/35 60/153/36
f  57/155/51 80/119/26 77/120/27
f  77/120/27 58/156/51 57/155/51
f  63/157/52 81/121/26 82/122/28
f  82/122/28 64/158/52 63/157/52
f  64/159/53 82/123/29 83/126/30
f  83/126/30 61/160/54 64/159/53
f  61/161/50 83/127/31 84/130/32
f  84/130/32 62/162/55 61/161/50
f  62/163/56 84/131/33 81/132/34
f  81/132/34 63/164/57 62/163/56
f  46/165/58 67/166/58 35/39/58
f  35/39/58 12/12/58 46/165/58
f  25/167/59 66/168/59 34/59/59
f  34/59/59 16/16/59 25/167/59
f  42/169/60 65/170/60 39/43/60
f  39/43/60 20/20/60 42/169/60
f  29/171/61 68/172/61 38/63/61
f  38/63/61 24/24/61 29/171/61
f  47/173/58 46/165/58 12/12/58
f  12/12/58 11/11/58 47/173/58
f  66/174/58 47/173/58 11/11/58
f  11/11/58 34/38/58 66/174/58
f  43/175/60 42/169/60 20/20/60
f  20/20/60 19/19/60 43/175/60
f  68/176/60 43/175/60 19/19/60
f  19/19/60 38/42/60 68/176/60
f  26/177/59 25/167/59 16/16/59
f  16/16/59 15/15/59 26/177/59
f  65/178/59 26/177/59 15/15/59
f  15/15/59 39/58/59 65/178/59
f  30/179/61 29/171/61 24/24/61
f  24/24/61 23/23/61 30/179/61
f  67/180/61 30/179/61 23/23/61
f  23/23/61 35/62/61 67/180/61
f  85/181/1 86/182/62 87/183/1
f  88/184/62 89/185/1 90/186/1
f  91/187/1 92/188/63 93/189/1
f  94/190/63 95/191/1 96/192/1
f  90/186/1 87/183/1 86/182/62
f  86/182/62 88/184/62 90/186/1
f  96/192/1 93/189/1 92/188/63
f  92/188/63 94/190/63 96/192/1
f  90/186/1 89/185/1 91/187/1
f  90/186/1 91/187/1 93/189/1
f  96/192/1 95/191/1 85/181/1
f  96/192/1 85/181/1 87/183/1
f  90/193/64 6/6/65 5/5/64
f  5/5/64 87/194/64 90/193/64
f  87/194/66 5/5/67 8/8/67
f  8/8/67 96/195/66 87/194/66
f  96/195/68 8/8/69 7/7/68
f  7/7/68 93/196/68 96/195/68
f  93/196/70 7/7/71 6/6/71
f  6/6/71 90/193/70 93/196/70
f  85/197/72 48/56/73 28/32/74
f  28/32/74 86/198/75 85/197/72
f  86/198/76 28/32/77 27/31/78
f  27/31/78 88/199/79 86/198/76
f  88/199/80 27/31/80 41/49/80
f  41/49/80 89/200/80 88/199/80
f  89/200/81 41/49/81 44/52/81
f  44/52/81 91/201/81 89/200/81
f  91/201/82 44/52/83 32/36/84
f  32/36/84 92/202/85 91/201/82
f  92/202/86 32/36/87 31/35/88
f  31/35/88 94/203/89 92/202/86
f  94/203/90 31/35/90 45/53/90
f  45/53/90 95/204/90 94/203/90
f  95/204/91 45/53/91 48/56/91
f  48/56/91 85/197/91 95/204/91

